{
  "accessors": [
    {
      "bufferView": 2,
      "componentType": 5126,
      "count": 65532,
      "max": [
        0.95816802978515625,
        1,
        0.73764002323150635
      ],
      "min": [
        -0.95816802978515625,
        -1,
        -0.74651998281478882
      ],
      "type": "VEC3"
    },
    {
      "bufferView": 2,
      "byteOffset": 786384,
      "componentType": 5126,
      "count": 65532,
      "max": [
        0.99956035614013672,
        1,
        0.99999666213989258
      ],
      "min": [
        -0.99997377395629883,
        -0.99999374151229858,
        -0.99997550249099731
      ],
      "type": "VEC3"
    },
    {
      "bufferView": 3,
      "componentType": 5126,
      "count": 65532,
      "max": [
        0.99997401237487793,
        0.99661898612976074,
        0.99838501214981079,
        1
      ],
      "min": [
        -0.99998599290847778,
        -0.9989510178565979,
        -0.99988597631454468,
        1
      ],
      "type": "VEC4"
    },
    {
      "bufferView": 1,
      "componentType": 5126,
      "count": 65532,
      "max": [
        0.91005897521972656,
        0.99233102798461914
      ],
      "min": [
        0.0076685701496899128,
        0.1450749933719635
      ],
      "type": "VEC2"
    },
    {
      "bufferView": 0,
      "componentType": 5125,
      "count": 380028,
      "max": [
        65531
      ],
      "min": [
        0
      ],
      "type": "SCALAR"
    },
    {
      "bufferView": 2,
      "byteOffset": 1572768,
      "componentType": 5126,
      "count": 65532,
      "max": [
        0.95740401744842529,
        0.42054098844528198,
        0.75072598457336426
      ],
      "min": [
        -0.95661401748657227,
        -1,
        -0.75072598457336426
      ],
      "type": "VEC3"
    },
    {
      "bufferView": 2,
      "byteOffset": 2359152,
      "componentType": 5126,
      "count": 65532,
      "max": [
        0.99999213218688965,
        0.99986976385116577,
        0.99997597932815552
      ],
      "min": [
        -0.9999731183052063,
        -0.99990063905715942,
        -0.9999879002571106
      ],
      "type": "VEC3"
    },
    {
      "bufferView": 3,
      "byteOffset": 1048512,
      "componentType": 5126,
      "count": 65532,
      "max": [
        0.99999701976776123,
        0.99683600664138794,
        0.99904102087020874,
        1
      ],
      "min": [
        -0.99996399879455566,
        -0.99956697225570679,
        -0.99998700618743896,
        1
      ],
      "type": "VEC4"
    },
    {
      "bufferView": 1,
      "byteOffset": 524256,
      "componentType": 5126,
      "count": 65532,
      "max": [
        0.98843902349472046,
        0.99233102798461914
      ],
      "min": [
        0.015337100252509117,
        0.0060703200288116932
      ],
      "type": "VEC2"
    },
    {
      "bufferView": 0,
      "byteOffset": 1520112,
      "componentType": 5125,
      "count": 371331,
      "max": [
        65531
      ],
      "min": [
        0
      ],
      "type": "SCALAR"
    },
    {
      "bufferView": 2,
      "byteOffset": 3145536,
      "componentType": 5126,
      "count": 6186,
      "max": [
        0.76847702264785767,
        0.17790800333023071,
        0.67459297180175781
      ],
      "min": [
        -0.56499201059341431,
        -0.97035801410675049,
        -0.714680016040802
      ],
      "type": "VEC3"
    },
    {
      "bufferView": 2,
      "byteOffset": 3219768,
      "componentType": 5126,
      "count": 6186,
      "max": [
        0.99990832805633545,
        0.99968987703323364,
        0.99837565422058105
      ],
      "min": [
        -0.9999731183052063,
        -0.99710148572921753,
        -0.99958509206771851
      ],
      "type": "VEC3"
    },
    {
      "bufferView": 3,
      "byteOffset": 2097024,
      "componentType": 5126,
      "count": 6186,
      "max": [
        0.99950402975082397,
        0.99983501434326172,
        0.98026198148727417,
        1
      ],
      "min": [
        -0.99983102083206177,
        -0.9991840124130249,
        -0.98065799474716187,
        1
      ],
      "type": "VEC4"
    },
    {
      "bufferView": 1,
      "byteOffset": 1048512,
      "componentType": 5126,
      "count": 6186,
      "max": [
        0.97212702035903931,
        0.78527998924255371
      ],
      "min": [
        0.0076685701496899128,
        0.0050353999249637127
      ],
      "type": "VEC2"
    },
    {
      "bufferView": 0,
      "byteOffset": 3005436,
      "componentType": 5125,
      "count": 32913,
      "max": [
        6185
      ],
      "min": [
        0
      ],
      "type": "SCALAR"
    }
  ],
  "asset": {
    "extras": {
      "author": "darwinmuseum.ru (https://sketchfab.com/darwinmuseum.ru)",
      "license": "CC0-1.0 (http://creativecommons.org/publicdomain/zero/1.0/)",
      "source": "https://sketchfab.com/3d-models/miniature-pinscher-2d815fabf9374fa5afc9df8be6d1c995",
      "title": "Карликовый терьер | Miniature Pinscher"
    },
    "generator": "Sketchfab-7.80.0",
    "version": "2.0"
  },
  "bufferViews": [
    {
      "buffer": 0,
      "byteLength": 3137088,
      "byteOffset": 0,
      "name": "floatBufferViews",
      "target": 34963
    },
    {
      "buffer": 0,
      "byteLength": 1098000,
      "byteOffset": 3137088,
      "byteStride": 8,
      "name": "floatBufferViews",
      "target": 34962
    },
    {
      "buffer": 0,
      "byteLength": 3294000,
      "byteOffset": 4235088,
      "byteStride": 12,
      "name": "floatBufferViews",
      "target": 34962
    },
    {
      "buffer": 0,
      "byteLength": 2196000,
      "byteOffset": 7529088,
      "byteStride": 16,
      "name": "floatBufferViews",
      "target": 34962
    }
  ],
  "buffers": [
    {
      "byteLength": 9725088,
      "uri": "scene.bin"
    }
  ],
  "images": [
    {
      "uri": "textures/DefaultMaterial_baseColor.jpeg"
    },
    {
      "uri": "textures/DefaultMaterial_normal.png"
    }
  ],
  "materials": [
    {
      "doubleSided": true,
      "emissiveFactor": [
        0,
        0,
        0
      ],
      "name": "DefaultMaterial",
      "normalTexture": {
        "index": 1,
        "scale": 1,
        "texCoord": 0
      },
      "pbrMetallicRoughness": {
        "baseColorFactor": [
          1,
          1,
          1,
          1
        ],
        "baseColorTexture": {
          "index": 0,
          "texCoord": 0
        },
        "metallicFactor": 0,
        "roughnessFactor": 0.59999999999999998
      }
    }
  ],
  "meshes": [
    {
      "name": "defaultMaterial",
      "primitives": [
        {
          "attributes": {
            "NORMAL": 1,
            "POSITION": 0,
            "TANGENT": 2,
            "TEXCOORD_0": 3
          },
          "indices": 4,
          "material": 0,
          "mode": 4
        }
      ]
    },
    {
      "name": "defaultMaterial",
      "primitives": [
        {
          "attributes": {
            "NORMAL": 6,
            "POSITION": 5,
            "TANGENT": 7,
            "TEXCOORD_0": 8
          },
          "indices": 9,
          "material": 0,
          "mode": 4
        }
      ]
    },
    {
      "name": "defaultMaterial",
      "primitives": [
        {
          "attributes": {
            "NORMAL": 11,
            "POSITION": 10,
            "TANGENT": 12,
            "TEXCOORD_0": 13
          },
          "indices": 14,
          "material": 0,
          "mode": 4
        }
      ]
    }
  ],
  "nodes": [
    {
      "children": [
        1
      ],
      "name": "RootNode (gltf orientation matrix)",
      "rotation": [
        -0.70710678118654746,
        -0,
        -0,
        0.70710678118654757
      ]
    },
    {
      "children": [
        2
      ],
      "matrix": [
        0.88281375169754028,
        0.46849852800369263,
        0.033896490931510925,
        0,
        -0.44577601552009583,
        0.85836952924728394,
        -0.25393998622894287,
        0,
        -0.14806622266769409,
        0.20907147228717804,
        0.96662580966949463,
        0,
        -3.5693881272891304e-07,
        -9.2047557131991198e-08,
        -2.1567225871876872e-07,
        1
      ],
      "name": "RootNode (model correction matrix)"
    },
    {
      "children": [
        3
      ],
      "matrix": [
        1,
        0,
        0,
        0,
        0,
        -4.3711390063094768e-08,
        0.999999999999999,
        0,
        0,
        -0.999999999999999,
        -4.3711390063094768e-08,
        0,
        0,
        0,
        0,
        1
      ],
      "name": "Collada visual scene group"
    },
    {
      "children": [
        4,
        5,
        6
      ],
      "name": "defaultobject"
    },
    {
      "mesh": 0,
      "name": "defaultMaterial"
    },
    {
      "mesh": 1,
      "name": "defaultMaterial"
    },
    {
      "mesh": 2,
      "name": "defaultMaterial"
    }
  ],
  "samplers": [
    {
      "magFilter": 9729,
      "minFilter": 9987,
      "wrapS": 10497,
      "wrapT": 10497
    }
  ],
  "scene": 0,
  "scenes": [
    {
      "name": "OSG_Scene",
      "nodes": [
        0
      ]
    }
  ],
  "textures": [
    {
      "sampler": 0,
      "source": 0
    },
    {
      "sampler": 0,
      "source": 1
    }
  ]
}

